# xmcd
#
# Track frame offsets:
#	150
#	17781
#	31780
#	47433
#	62679
#	78384
#	91254
#	103767
#	118833
#	132316
#	147213
#	159667
#	178263
#	194642
#	207624
#	220174
#	233708
#	248764
#	263933
#	277515
#	288339
#	299104
#
# Disc length: 4187 seconds
#
# Revision: 0
# Processed by: cddbd v1.5.2PL0 Copyright (c) Steve Scherf et al.
# Submitted via: audiograbber 1.83.01
#
DISCID=4d105916
DTITLE=Los Tucanes De Tijuana - 22 Corridos Pesaods
DYEAR=1900
DGENRE=
TTITLE0=El Muletas
TTITLE1=El Compadre Negro
TTITLE2=Que Te Perdone Tu Madre
TTITLE3=El Paro
TTITLE4=El Comando Negro
TTITLE5=Temporada De La Sierra
TTITLE6=Las Heladas
TTITLE7=El Papa De Los Pollitos
TTITLE8=Pista Secreta
TTITLE9=El MZ
TTITLE10=Mis 3 Animales
TTITLE11=Kiki urias
TTITLE12=Mas Vale Cholo
TTITLE13=Pelliscando El Animal
TTITLE14=Clave Nueva
TTITLE15=Desatando El Morral
TTITLE16=Manuel Caro Carrillo
TTITLE17=El Chapo Guzman
TTITLE18=Tito Jimenez
TTITLE19=El Charro De Culiacan
TTITLE20=El Jefe X
TTITLE21=El Borrego
EXTD=
EXTT0=
EXTT1=
EXTT2=
EXTT3=
EXTT4=
EXTT5=
EXTT6=
EXTT7=
EXTT8=
EXTT9=
EXTT10=
EXTT11=
EXTT12=
EXTT13=
EXTT14=
EXTT15=
EXTT16=
EXTT17=
EXTT18=
EXTT19=
EXTT20=
EXTT21=
PLAYORDER=
